PathFileType	4	(X/Y/Z)	./resultDataOpenSim/trcMotMarkerGrf/sub06/qtm-05-02.trc
DataRate	CameraRate	NumFrames	NumMarkers	Units	OrigDataRate	OrigDataStartFrame	OrigNumFrames
250.000000	250.000000	10	24	m	250.000000	205	545
Frame#	Time	L.Toe.Tip			R.Toe.Tip			L.Ankle.Lat			R.Ankle.Lat			L.Ankle.Med			R.Ankle.Med			L.Heel			R.Heel			L.Knee.Lat			R.Knee.Lat			L.Knee.Med			R.Knee.Med			L.Thigh.Upper			R.Thigh.Upper			L.ASIS			R.ASIS			V.Sacral			L.Acromium			R.Acromium			C7			L.Elbow			R.Elbow			L.Wrist.Lat			R.Wrist.Lat
		X1	Y1	Z1	X2	Y2	Z2	X3	Y3	Z3	X4	Y4	Z4	X5	Y5	Z5	X6	Y6	Z6	X7	Y7	Z7	X8	Y8	Z8	X9	Y9	Z9	X10	Y10	Z10	X11	Y11	Z11	X12	Y12	Z12	X13	Y13	Z13	X14	Y14	Z14	X15	Y15	Z15	X16	Y16	Z16	X17	Y17	Z17	X18	Y18	Z18	X19	Y19	Z19	X20	Y20	Z20	X21	Y21	Z21	X22	Y22	Z22	X23	Y23	Z23	X24	Y24	Z24

205	0.816	0.074585611	-0.066318922	-0.017598865	-0.52991849	0.092280884	0.15802841	-0.048450992	-0.034576933	-0.03823079	-0.52974867	0.22854507	0.17504489	-0.045564913	-0.019167955	0.050025918	-0.49095195	0.20883089	0.096209717	-0.12494786	-0.058107989	0.009640036	-0.55034749	0.27350848	0.10918076	0.058668925	0.32242595	-0.072047177	-0.16275431	0.28054439	0.23441592	0.045355512	0.32117759	0.049489366	-0.17023362	0.26709994	0.10110419	-0.092520144	0.69181155	-0.12932237	-0.1791811	0.63569157	0.20106312	-0.036985304	0.72702059	-0.070487299	-0.076861367	0.70006606	0.1729949	-0.24830137	0.78524548	0.037771812	-0.11521044	1.1792026	-0.16154008	-0.14734439	1.1941161	0.20249537	-0.21390869	1.2256233	0.0093645621	-0.19916678	0.87733925	-0.19487116	-0.22231214	0.88391805	0.28223422	-0.10847638	0.65865558	-0.26065586	-0.04157399	0.71465622	0.30620491
206	0.82	0.074560369	-0.066193168	-0.01761189	-0.51285765	0.094337584	0.15922214	-0.048460085	-0.034611292	-0.038226528	-0.51336952	0.23047551	0.17583185	-0.045526754	-0.01919438	0.050022441	-0.47501322	0.21093427	0.096779925	-0.1249965	-0.058122851	0.0096933502	-0.53512322	0.27534067	0.10999112	0.060304426	0.32194812	-0.072131793	-0.14717592	0.28201234	0.23409974	0.045464485	0.320755	0.049548261	-0.15594502	0.26868887	0.10020609	-0.087324469	0.69304456	-0.12969746	-0.17271597	0.63747793	0.20091238	-0.031870307	0.72850938	-0.070943166	-0.071257462	0.70199274	0.17291034	-0.24242604	0.78698761	0.037572145	-0.10815373	1.1807298	-0.16131018	-0.14199013	1.1957371	0.20275881	-0.20735367	1.2274082	0.0092556896	-0.1909411	0.87823284	-0.19551241	-0.21835279	0.88558693	0.28118267	-0.097090968	0.66041299	-0.2601434	-0.039988179	0.71446662	0.3063681
207	0.824	0.074503252	-0.066057662	-0.017704473	-0.4954356	0.096152294	0.16023314	-0.048507241	-0.034619116	-0.03821883	-0.49707104	0.23217523	0.17657366	-0.045505824	-0.019195899	0.05001922	-0.45908429	0.21298195	0.09718782	-0.12504735	-0.05812379	0.0097361155	-0.52003351	0.27690753	0.1108609	0.061980989	0.32160457	-0.072030324	-0.13161426	0.28378171	0.23368442	0.045317904	0.32064231	0.04973765	-0.14160086	0.27048763	0.099331284	-0.082223011	0.69430244	-0.13007292	-0.16634496	0.63940552	0.2008188	-0.026717866	0.73010272	-0.071351748	-0.065674619	0.70403973	0.1728323	-0.2363974	0.78887927	0.037524878	-0.10124888	1.1824064	-0.16103835	-0.13666157	1.197491	0.20306311	-0.20083548	1.2293242	0.009227655	-0.1827986	0.87927146	-0.19618324	-0.21447221	0.88745156	0.28008727	-0.085687348	0.66236968	-0.25951933	-0.038454455	0.71446793	0.3065075
208	0.828	0.074375246	-0.065939099	-0.017921579	-0.47771874	0.097769216	0.16107744	-0.048595444	-0.034594346	-0.038215822	-0.48082674	0.23365627	0.17728667	-0.045501093	-0.019167984	0.050012799	-0.4430758	0.21487661	0.097481942	-0.12510017	-0.058110757	0.0097673295	-0.50503431	0.27823073	0.11177213	0.063565029	0.32136435	-0.071771599	-0.11607381	0.2858648	0.23316317	0.045007523	0.32075623	0.050015922	-0.12716582	0.27252455	0.09857806	-0.077237505	0.69560542	-0.13044363	-0.16004413	0.64143539	0.20076404	-0.021578871	0.73176167	-0.071712674	-0.060143036	0.70617448	0.17274539	-0.23043533	0.79091473	0.03746547	-0.094490264	1.1842314	-0.16073067	-0.13133893	1.1993676	0.20339359	-0.194354	1.2313388	0.0092657789	-0.17463417	0.88040908	-0.19694043	-0.2105973	0.88949451	0.27880168	-0.07426312	0.66452531	-0.25877691	-0.036992855	0.7146592	0.30662565
209	0.832	0.074210827	-0.065850891	-0.018184828	-0.45974675	0.099248172	0.16177068	-0.048692966	-0.034519359	-0.038213432	-0.46457735	0.23494966	0.17800477	-0.045511045	-0.019111469	0.0500077	-0.42706648	0.21663207	0.097770698	-0.12515374	-0.058085142	0.0097923472	-0.49013161	0.27930915	0.1126965	0.064945278	0.32122268	-0.071386312	-0.10056433	0.28829384	0.23254005	0.044599672	0.32103692	0.050368117	-0.11260859	0.2748606	0.097934187	-0.072258607	0.69698383	-0.13077624	-0.15379742	0.64356485	0.20072309	-0.016476552	0.73345437	-0.072030769	-0.054678567	0.70837535	0.1726441	-0.22468585	0.79307412	0.037247571	-0.087863899	1.1862033	-0.16039454	-0.1259968	1.2013545	0.20373772	-0.18792005	1.2334354	0.0093615846	-0.16640012	0.88163558	-0.19777775	-0.20663642	0.89170382	0.27722306	-0.062799463	0.6668884	-0.25790872	-0.035613508	0.7150409	0.30673098
210	0.836	0.074072255	-0.065790425	-0.018385613	-0.44154247	0.1006272	0.16234591	-0.048757843	-0.034391803	-0.038181837	-0.4482569	0.23608665	0.17876017	-0.04553005	-0.019032956	0.050013279	-0.41115813	0.21826781	0.098136858	-0.12520921	-0.058051178	0.009815719	-0.47532277	0.28012604	0.11361284	0.066080492	0.32119008	-0.070901709	-0.085098623	0.2911028	0.23183475	0.044130515	0.32144126	0.050784087	-0.097958264	0.27753307	0.097268758	-0.067204264	0.69844439	-0.13106681	-0.14762479	0.64580324	0.20070501	-0.011406187	0.73516141	-0.07231406	-0.04927183	0.71063998	0.17252925	-0.21912057	0.79533094	0.036897338	-0.081354429	1.1883155	-0.16003885	-0.12061461	1.2034389	0.20408706	-0.18154018	1.2356084	0.0095099243	-0.1582088	0.88299187	-0.19854178	-0.20260761	0.89407253	0.27547486	-0.051293522	0.66946009	-0.25691059	-0.034309172	0.71560772	0.30682771
211	0.84	0.073976596	-0.065745776	-0.018496418	-0.42311095	0.10189479	0.16290313	-0.04877553	-0.034231063	-0.038090396	-0.43184269	0.23707636	0.17956028	-0.045549237	-0.018940854	0.050036869	-0.3953738	0.2197484	0.098600365	-0.12527021	-0.058016592	0.0098417397	-0.46055715	0.28065282	0.11451203	0.066971269	0.32128162	-0.070344175	-0.069692572	0.29431323	0.23107111	0.043589539	0.32191164	0.051228914	-0.083248627	0.28048119	0.096498969	-0.062172809	0.69995413	-0.13135763	-0.1415518	0.64815437	0.20073811	-0.0063485973	0.73687196	-0.072572177	-0.043905859	0.71298156	0.17240375	-0.2136068	0.79766946	0.036521068	-0.074960994	1.1905622	-0.1596679	-0.11518054	1.2056094	0.20443576	-0.1752113	1.2378527	0.0097048214	-0.15016471	0.88450844	-0.19912648	-0.19864763	0.89659578	0.27388372	-0.039784896	0.67222223	-0.25579002	-0.033065364	0.71634504	0.3069146
212	0.844	0.073902379	-0.065707004	-0.01855108	-0.40446737	0.10297527	0.16359488	-0.04877947	-0.03405933	-0.037954563	-0.41545039	0.23786289	0.18035028	-0.045567165	-0.018839763	0.050076947	-0.37966879	0.22101567	0.099120639	-0.12533388	-0.05798985	0.0098896361	-0.44577567	0.28084611	0.1153853	0.067625597	0.32151238	-0.069733041	-0.054368147	0.29792798	0.2302603	0.042924477	0.32236364	0.051641463	-0.068488901	0.28360132	0.095685323	-0.057342922	0.70147253	-0.13167579	-0.13557695	0.65061763	0.20084299	-0.001275913	0.73858203	-0.07281568	-0.038563475	0.71541528	0.17226922	-0.20803926	0.80009022	0.036109599	-0.068694565	1.1929375	-0.15927503	-0.10968329	1.2078544	0.20477947	-0.16892725	1.2401595	0.0099405481	-0.14222641	0.88616969	-0.19960543	-0.19485499	0.89926391	0.27268	-0.028333024	0.67514642	-0.25457496	-0.031868988	0.71723544	0.30699172
213	0.848	0.073827796	-0.065669453	-0.018584666	-0.38566085	0.10378003	0.16449862	-0.048829342	-0.03388803	-0.037830197	-0.39932921	0.23832352	0.18101571	-0.045594877	-0.018729739	0.050124349	-0.36394048	0.22202041	0.099600127	-0.12538398	-0.057971878	0.0099960481	-0.43101339	0.28067129	0.11620862	0.06804833	0.32188324	-0.069086071	-0.039152686	0.3019342	0.22939918	0.042058509	0.32271064	0.051949464	-0.053787282	0.28688013	0.094856661	-0.052761259	0.70298542	-0.13198956	-0.12969969	0.65318691	0.20104562	0.0038499523	0.74029747	-0.073051158	-0.033228659	0.71794495	0.17212282	-0.20239072	0.80259077	0.035556967	-0.062550928	1.1954299	-0.15885476	-0.10411317	1.2101603	0.20511623	-0.16268194	1.242518	0.010215041	-0.13429994	0.88794344	-0.20009604	-0.19120104	0.90205976	0.2718304	-0.016971141	0.67821343	-0.25329723	-0.03070805	0.71826524	0.30706296
214	0.852	0.07374453	-0.06563072	-0.018613684	-0.3667234	0.1043239	0.16551766	-0.048950977	-0.033716008	-0.037748565	-0.38362338	0.23838113	0.18148723	-0.045645898	-0.018610046	0.050171081	-0.34806771	0.22273426	0.099940252	-0.12541253	-0.057951766	0.010167278	-0.41640554	0.28012952	0.11694974	0.068237599	0.32236668	-0.068432735	-0.024070027	0.30630939	0.22848302	0.040983107	0.32293925	0.052127834	-0.039352504	0.29041091	0.093897632	-0.048340192	0.70449585	-0.13224766	-0.12394388	0.65585018	0.20137995	0.0090560921	0.74203008	-0.073280497	-0.027898527	0.72056028	0.17195536	-0.19670289	0.80514628	0.034869585	-0.056491728	1.198021	-0.15841918	-0.09846787	1.2125125	0.20544607	-0.15646604	1.2449204	0.010530788	-0.12634876	0.88981055	-0.2006288	-0.18760419	0.90496393	0.27117866	-0.0056824517	0.6814236	-0.25195947	-0.029570639	0.7194236	0.30713259
